{"title":"Raja Natwalal 2014 HINDI DVDScr XviD MP3 - TeXTX","uid":10920060,"size":1678670965,"categoryP":"video","categoryS":"movies","magnet":"?xt=urn:btih:100208d2aeaabe6206d087079a60d92bc7285aae&amp;dn=Raja+Natwalal+2014+HINDI+DVDScr+XviD+MP3+-+TeXTX&amp;tr=udp%3A%2F%2Ftracker.openbittorrent.com%3A80&amp;tr=udp%3A%2F%2Fopen.demonii.com%3A1337&amp;tr=udp%3A%2F%2Ftracker.coppersurfer.tk%3A6969&amp;tr=udp%3A%2F%2Fexodus.desync.com%3A6969","seeders":1,"leechers":1,"uploader":"TeX","files":3,"time":1409325057,"description":"[img]http://dyncdn.me/posters2/3/380973bd60696a76eede8e36122b643e506140f6.jpg[/img]\n\n[mediainfo]General\nComplete name : raja nat p222.avi\nFormat : AVI\nFormat/Info : Audio Video Interleave\nFile size : 838 MiB\nDuration : 1h 11mn\nOverall bit rate : 1 639 Kbps\nWriting application : Lavf51.12.1\n\nVideo\nID : 0\nFormat : MPEG-4 Visual\nCodec ID : DIV3\nCodec ID/Hint : DivX 3 Low\nDuration : 1h 11mn\nBit rate : 1 499 Kbps\nWidth : 720 pixels\nHeight : 576 pixels\nDisplay aspect ratio : 5:4\nFrame rate : 25.000 fps\nStandard : PAL\nColor space : YUV\nChroma subsampling : 4:2:0\nBit depth : 8 bits\nCompression mode : Lossy\nBits/(Pixel*Frame) : 0.145\nStream size : 766 MiB (91%)\n\nAudio\nID : 1\nFormat : MPEG Audio\nFormat version : Version 1\nFormat profile : Layer 3\nMode : Joint stereo\nMode extension : MS Stereo\nCodec ID : 55\nCodec ID/Hint : MP3\nDuration : 1h 11mn\nBit rate mode : Constant\nBit rate : 128 Kbps\nChannel(s) : 2 channels\nSampling rate : 44.1 KHz\nCompression mode : Lossy\nStream size : 65.4 MiB (8%)\nAlignment : Aligned on interleaves\nInterleave, duration : 26 ms (0.65 video frame)[/mediainfo]","torrent":{"xt":"urn:btih:100208d2aeaabe6206d087079a60d92bc7285aae","amp;dn":"Raja+Natwalal+2014+HINDI+DVDScr+XviD+MP3+-+TeXTX","amp;tr":["udp%3A%2F%2Ftracker.openbittorrent.com%3A80","udp%3A%2F%2Fopen.demonii.com%3A1337","udp%3A%2F%2Ftracker.coppersurfer.tk%3A6969","udp%3A%2F%2Fexodus.desync.com%3A6969"],"infoHash":"100208d2aeaabe6206d087079a60d92bc7285aae","infoHashBuffer":{"type":"Buffer","data":[16,2,8,210,174,170,190,98,6,208,135,7,154,96,217,43,199,40,90,174]},"announce":[],"urlList":[]}}